<svg xmlns="http://www.w3.org/2000/svg" viewBox="0 0 100 100" fill="none">
  <!-- Chat bubble with tail -->
  <path d="M50 10 C25 10, 9 27, 9 47 c0 9, 3 17, 9 24 L 11 90 l 20 -7 c5 3, 12 4, 19 4 C 75 84, 91 67, 91 47 C 91 27, 75 10, 50 10 z"
        fill="white" stroke="black" stroke-width="4" stroke-linejoin="round"/>
  <!-- # symbol in magenta with black outline -->
  <g fill="#E93BA1" stroke="black" stroke-width="2" stroke-linejoin="round" stroke-linecap="round">
    <path d="M 36 26 L 33 67 L 27 67 L 30 26 z"/>
    <path d="M 60 26 L 57 67 L 51 67 L 54 26 z"/>
    <path d="M 21 37 L 67 37 L 65 44 L 19 44 z"/>
    <path d="M 19 52 L 65 52 L 63 59 L 17 59 z"/>
  </g>
</svg>
